<?xml version="1.0" standalone="no"?>
<!DOCTYPE svg PUBLIC "-//W3C//DTD SVG 20010904//EN"
 "http://www.w3.org/TR/2001/REC-SVG-20010904/DTD/svg10.dtd">
<svg version="1.0" xmlns="http://www.w3.org/2000/svg"
 width="1280.000000pt" height="1280.000000pt" viewBox="0 0 1280.000000 1280.000000"
 preserveAspectRatio="xMidYMid meet">
<metadata>
Created by potrace 1.11, written by Peter Selinger 2001-2013
</metadata>
<g transform="translate(0.000000,1280.000000) scale(0.100000,-0.100000)"
fill="#000000" stroke="none">
<path d="M10709 8416 c-2 -2 -44 -6 -93 -10 -293 -21 -618 -109 -871 -238
-580 -294 -940 -788 -1050 -1438 -35 -210 -39 -552 -9 -780 86 -656 469 -1199
1041 -1475 136 -66 341 -134 478 -159 183 -34 268 -41 505 -41 226 0 281 4
448 36 143 28 273 66 407 119 103 41 316 157 407 220 6 5 -18 119 -27 128 -2
2 -53 -13 -114 -32 -161 -51 -403 -103 -571 -123 -133 -15 -505 -9 -605 11
-11 2 -40 7 -65 12 -25 4 -47 8 -50 9 -3 1 -21 5 -40 9 -83 18 -232 71 -325
116 -88 43 -132 69 -260 157 -34 23 -204 188 -245 238 -56 68 -154 226 -200
320 -76 160 -144 387 -165 550 -3 28 -8 57 -10 65 -20 77 -21 474 0 625 2 17
7 53 10 80 39 300 179 641 353 855 196 243 417 388 700 460 151 38 213 45 412
45 202 0 290 -8 472 -45 149 -30 178 -39 178 -54 0 -12 24 -103 60 -226 21
-72 122 -436 125 -453 9 -42 17 -56 28 -52 7 2 29 7 51 10 51 7 52 8 60 52 11
69 16 97 31 168 17 84 75 388 82 430 3 17 14 73 24 125 32 156 32 158 11 169
-10 5 -30 12 -43 15 -13 2 -35 7 -49 10 -14 3 -38 8 -55 11 -16 3 -82 14 -145
25 -116 20 -153 25 -245 35 -27 3 -72 8 -100 11 -60 6 -540 16 -546 10z"/>
<path d="M3049 8406 c-2 -2 -31 -7 -64 -11 -33 -3 -69 -8 -80 -11 -11 -2 -33
-6 -49 -9 -37 -5 -36 -5 -71 -90 -16 -38 -39 -95 -52 -125 -13 -30 -28 -64
-33 -75 -5 -11 -43 -103 -85 -205 -103 -249 -434 -1037 -450 -1075 -8 -16
-113 -268 -235 -560 -121 -291 -227 -543 -234 -560 -8 -16 -42 -97 -76 -180
-34 -82 -70 -169 -81 -192 -10 -23 -19 -44 -19 -48 0 -3 -9 -24 -19 -48 -11
-23 -50 -114 -86 -202 -102 -244 -150 -334 -200 -378 -38 -33 -92 -56 -248
-103 -174 -52 -166 -45 -151 -134 l6 -35 616 1 616 1 -3 59 c-1 32 -4 61 -6
63 -2 1 -66 21 -142 43 -76 22 -155 49 -175 60 -73 41 -71 98 9 313 83 223
349 903 361 924 6 11 128 13 690 15 598 1 683 -1 688 -14 3 -8 28 -78 56 -155
45 -127 105 -300 277 -795 27 -78 26 -74 36 -130 25 -136 5 -157 -218 -222
l-148 -43 5 -40 c3 -22 5 -49 5 -60 1 -20 8 -20 730 -20 l728 0 -2 45 c-2 25
-3 52 -4 61 -1 11 -18 21 -48 29 -139 37 -288 87 -312 105 -8 5 -33 29 -56 51
-64 63 -89 121 -266 609 -28 77 -59 163 -69 190 -10 28 -44 120 -76 205 -31
85 -76 209 -99 275 -24 66 -89 246 -145 400 -56 154 -185 510 -286 790 -102
281 -200 551 -219 600 -18 50 -47 131 -65 180 -17 50 -35 99 -40 110 -5 11
-39 104 -76 208 l-67 187 -32 0 c-17 0 -34 -2 -36 -4z m-163 -912 c31 -87 79
-222 106 -299 163 -458 264 -744 294 -835 14 -41 29 -84 34 -95 5 -11 20 -53
34 -92 l26 -73 -585 0 c-322 0 -585 3 -585 6 0 3 9 26 20 52 26 63 210 532
210 536 0 2 8 21 17 42 9 22 17 41 18 44 1 3 5 14 10 25 4 11 50 128 102 260
52 132 122 312 157 400 35 88 66 169 70 179 4 10 9 17 11 14 3 -3 31 -77 61
-164z"/>
<path d="M6388 8364 c-13 -13 -688 -21 -1041 -14 -108 3 -161 1 -165 -7 -4 -6
-5 -33 -4 -60 4 -57 -22 -43 230 -123 l164 -52 18 -41 c18 -40 19 -104 19
-1716 -1 -1501 -2 -1678 -17 -1707 -18 -40 -4 -34 -232 -103 l-185 -57 3 -34
c1 -19 5 -46 8 -60 l4 -25 518 0 c284 -1 634 -3 777 -6 304 -6 460 6 665 51
585 130 936 484 988 997 39 387 -89 690 -379 895 -133 95 -309 168 -476 199
-39 7 -70 16 -67 20 2 4 21 13 42 20 147 48 357 178 450 278 171 187 244 383
243 656 -1 338 -140 580 -423 734 -132 71 -285 114 -538 150 -56 8 -595 13
-602 5z m377 -249 c181 -33 358 -119 443 -214 27 -30 92 -135 92 -147 0 -5 7
-21 14 -36 33 -64 50 -180 50 -343 0 -88 -3 -176 -7 -195 -28 -128 -56 -204
-107 -284 -42 -67 -138 -163 -187 -188 -15 -8 -44 -24 -64 -36 -110 -62 -318
-98 -554 -95 -77 1 -172 2 -212 2 l-72 1 0 764 c0 583 3 765 12 768 7 3 34 6
62 7 27 1 52 4 54 7 7 7 431 -3 476 -11z m45 -1779 c338 -60 531 -187 637
-417 114 -246 107 -663 -15 -904 -105 -209 -271 -337 -522 -400 -186 -48 -514
-52 -683 -9 l-66 16 0 864 0 863 32 3 c18 2 142 3 277 3 182 -1 270 -6 340
-19z"/>
</g>
</svg>
